<svg height='100px' width='100px'  fill="#000000" xmlns="http://www.w3.org/2000/svg" viewBox="0 0 48 48" x="0px" y="0px"><title>08-sarcastic</title><g data-name="08-sarcastic"><path d="M24,48A24,24,0,1,1,48,24,24.028,24.028,0,0,1,24,48ZM24,2A22,22,0,1,0,46,24,22.025,22.025,0,0,0,24,2Z"></path><path d="M21,36.015,19,36c0-2.748,5.7-4,11-4v2C24.146,34,21.149,35.46,21,36.015Z"></path><path d="M34,26a6.993,6.993,0,0,1-5.208-11.667A1,1,0,0,1,29.537,14h8.926a1,1,0,0,1,.745.333A6.993,6.993,0,0,1,34,26ZM30.008,16a5,5,0,1,0,7.984,0Z"></path><path d="M37,20a3,3,0,0,1-3-3V15h2v2a1,1,0,0,0,2,0V16h2v1A3,3,0,0,1,37,20Z"></path><path d="M14,26A6.993,6.993,0,0,1,8.792,14.333,1,1,0,0,1,9.537,14h8.926a1,1,0,0,1,.745.333A6.993,6.993,0,0,1,14,26ZM10.008,16a5,5,0,1,0,7.984,0Z"></path><path d="M17,20a3,3,0,0,1-3-3V15h2v2a1,1,0,0,0,2,0V16h2v1A3,3,0,0,1,17,20Z"></path></g></svg>